<svg xmlns="http://www.w3.org/2000/svg" width="525" height="699" viewBox="0 0 525 699" version="1.1"><path d="M 122.121 125.142 C 84.376 129.088, 52.353 158.504, 43.347 197.500 C 41.595 205.089, 41.500 213.156, 41.500 354.500 C 41.500 494.446, 41.610 504.009, 43.307 511.883 C 50.486 545.179, 74.982 571.997, 107.228 581.863 C 130.238 588.903, 159.249 585.505, 180.137 573.324 C 202.262 560.421, 217.546 539.933, 223.647 515 L 225.972 505.500 225.986 355.124 C 226 205.102, 225.995 204.726, 223.866 195.624 C 215.044 157.898, 183.773 129.757, 145.500 125.101 C 135.507 123.885, 134.120 123.887, 122.121 125.142 M 354.846 125.077 C 319.504 128.823, 289.324 155.500, 280.959 190.386 C 279.186 197.784, 279.015 202.338, 279.022 242 C 279.030 282.191, 279.183 286.109, 281.035 293.500 C 288.545 323.468, 310.834 346.424, 342 356.290 C 348.139 358.233, 351.374 358.368, 400.250 358.724 L 452 359.100 452 280.638 C 452 194.677, 452.003 194.722, 446.027 179.225 C 438.003 158.420, 420.277 140.037, 400 131.493 C 390.803 127.617, 385.713 126.249, 376.026 125.049 C 366.726 123.898, 365.967 123.899, 354.846 125.077 M 278.982 412.191 C 278.972 412.911, 278.980 435.571, 279 462.546 C 279.035 511.424, 279.043 511.623, 281.493 520.775 C 289.462 550.554, 313.086 574.108, 343 582.101 C 355.180 585.356, 376.078 585.389, 387.395 582.171 C 426.760 570.979, 452 538.049, 452 497.882 C 452 458.638, 426.324 425.198, 387.500 413.880 C 379.670 411.597, 378.433 411.540, 329.250 411.215 C 288.349 410.944, 278.997 411.126, 278.982 412.191" stroke="none" fill="#fafbfb" fill-rule="evenodd"/><path d="M 0 349.502 L 0 699.004 262.750 698.752 L 525.500 698.500 525.751 349.250 L 526.003 0 263.001 0 L 0 0 0 349.502 M 0.494 350 C 0.494 542.225, 0.609 620.863, 0.750 524.750 C 0.891 428.638, 0.891 271.363, 0.750 175.250 C 0.609 79.138, 0.494 157.775, 0.494 350 M 122.121 125.142 C 84.376 129.088, 52.353 158.504, 43.347 197.500 C 41.595 205.089, 41.500 213.156, 41.500 354.500 C 41.500 494.446, 41.610 504.009, 43.307 511.883 C 50.486 545.179, 74.982 571.997, 107.228 581.863 C 130.238 588.903, 159.249 585.505, 180.137 573.324 C 202.262 560.421, 217.546 539.933, 223.647 515 L 225.972 505.500 225.986 355.124 C 226 205.102, 225.995 204.726, 223.866 195.624 C 215.044 157.898, 183.773 129.757, 145.500 125.101 C 135.507 123.885, 134.120 123.887, 122.121 125.142 M 354.846 125.077 C 319.504 128.823, 289.324 155.500, 280.959 190.386 C 279.186 197.784, 279.015 202.338, 279.022 242 C 279.030 282.191, 279.183 286.109, 281.035 293.500 C 288.545 323.468, 310.834 346.424, 342 356.290 C 348.139 358.233, 351.374 358.368, 400.250 358.724 L 452 359.100 452 280.638 C 452 194.677, 452.003 194.722, 446.027 179.225 C 438.003 158.420, 420.277 140.037, 400 131.493 C 390.803 127.617, 385.713 126.249, 376.026 125.049 C 366.726 123.898, 365.967 123.899, 354.846 125.077 M 278.982 412.191 C 278.972 412.911, 278.980 435.571, 279 462.546 C 279.035 511.424, 279.043 511.623, 281.493 520.775 C 289.462 550.554, 313.086 574.108, 343 582.101 C 355.180 585.356, 376.078 585.389, 387.395 582.171 C 426.760 570.979, 452 538.049, 452 497.882 C 452 458.638, 426.324 425.198, 387.500 413.880 C 379.670 411.597, 378.433 411.540, 329.250 411.215 C 288.349 410.944, 278.997 411.126, 278.982 412.191" stroke="none" fill="#2c8cfb" fill-rule="evenodd"/></svg>